<?xml version="1.0" encoding="UTF-8" standalone="no"?>
<svg
   xmlns:sketch="http://www.bohemiancoding.com/sketch/ns"
   xmlns:dc="http://purl.org/dc/elements/1.1/"
   xmlns:cc="http://creativecommons.org/ns#"
   xmlns:rdf="http://www.w3.org/1999/02/22-rdf-syntax-ns#"
   xmlns:svg="http://www.w3.org/2000/svg"
   xmlns="http://www.w3.org/2000/svg"
   xmlns:sodipodi="http://sodipodi.sourceforge.net/DTD/sodipodi-0.dtd"
   xmlns:inkscape="http://www.inkscape.org/namespaces/inkscape"
   width="141px"
   height="253px"
   viewBox="0 0 141 253"
   version="1.1"
   id="svg1718"
   sodipodi:docname="tag-ie.svg"
   inkscape:version="1.0.1 (3bc2e813f5, 2020-09-07)">
  <metadata
     id="metadata1724">
    <rdf:RDF>
      <cc:Work
         rdf:about="">
        <dc:format>image/svg+xml</dc:format>
        <dc:type
           rdf:resource="http://purl.org/dc/dcmitype/StillImage" />
      </cc:Work>
    </rdf:RDF>
  </metadata>
  <defs
     id="defs1722" />
  <sodipodi:namedview
     pagecolor="#ffffff"
     bordercolor="#666666"
     borderopacity="1"
     objecttolerance="10"
     gridtolerance="10"
     guidetolerance="10"
     inkscape:pageopacity="0"
     inkscape:pageshadow="2"
     inkscape:window-width="1920"
     inkscape:window-height="974"
     id="namedview1720"
     showgrid="false"
     inkscape:zoom="2.6519337"
     inkscape:cx="18.460202"
     inkscape:cy="131.55214"
     inkscape:window-x="-11"
     inkscape:window-y="-11"
     inkscape:window-maximized="1"
     inkscape:current-layer="svg1718" />
  <!-- Generator: Sketch 3.0 (7573) - http://www.bohemiancoding.com/sketch -->
  <title
     id="title1698">Untitled 3</title>
  <description>Created with Sketch.</description>
  <g
     id="Page-1"
     stroke="none"
     stroke-width="1"
     fill="none"
     fill-rule="evenodd">
    <path
       d="M35.2439115,13.1854528 C33.5855663,13.1831398 31.5104679,14.3055432 30.6095319,15.6916687 L6.81463413,52.3010563 C5.91348213,53.6875141 5.18107606,56.1615824 5.17877358,57.8168284 L4.92098815,243.138048 C4.91867931,244.797867 6.26625368,246.145289 7.92182293,246.147587 L133.911726,246.322465 C135.571351,246.324769 136.918605,244.98652 136.920918,243.323472 L137.181855,55.6637288 C137.184161,54.0051268 136.38926,51.5767258 135.408127,50.2420995 L110.019146,15.7057332 C109.037237,14.370052 106.889864,13.2853836 105.238543,13.2830804 L35.2439115,13.1854528 L35.2439115,13.1854528 Z M63.8699837,40.7466903 C63.8753112,36.6960717 67.1632902,33.4166548 71.2127095,33.4227317 C75.2623538,33.4278342 78.5405714,36.7165626 78.5352439,40.7671813 C78.5303663,44.8158512 75.2426123,48.0942937 71.192968,48.0891912 C67.1435487,48.0831143 63.8651061,44.7953603 63.8699837,40.7466903 L63.8699837,40.7466903 Z"
       id="Shape"
       fill="#F4F4F4"
       filter="" />
    <path
       d="M49.7893918,17.5747571 L57.3353918,50.4707571 L57.3623918,50.4647571 C58.4653918,53.9847571 66.7403918,55.1107571 76.1183918,52.9597571 C85.4943918,50.8087571 92.4513918,46.1877571 91.9103918,42.5397571 L91.9363918,42.5337571 L84.3903918,9.63775712 L49.7893918,17.5747571 L49.7893918,17.5747571 Z M74.8833918,47.5767571 C70.9363918,48.4817571 67.0023918,46.0157571 66.0963918,42.0687571 C65.1913918,38.1217571 67.6573918,34.1867571 71.6043918,33.2817571 C75.5513918,32.3757571 79.4853918,34.8427571 80.3913918,38.7897571 C81.2963918,42.7367571 78.8303918,46.6707571 74.8833918,47.5767571 L74.8833918,47.5767571 Z"
       id="path1701"
       fill="#B0E4FF"
       sketch:type="MSShapeGroup"
       transform="translate(70.789392, 31.637757) rotate(13.000000) translate(-70.789392, -31.637757) " />
    <circle
       id="Oval"
       stroke="#000000"
       sketch:type="MSShapeGroup"
       transform="translate(70.489417, 140.258213) rotate(13.000000) translate(-70.489417, -140.258213) "
       cx="70.4894175"
       cy="140.258213"
       r="44" />
    <circle
       id="circle1704"
       stroke="#000000"
       sketch:type="MSShapeGroup"
       transform="translate(70.489417, 140.258213) rotate(13.000000) translate(-70.489417, -140.258213) "
       cx="70.4894175"
       cy="140.258213"
       r="40" />
    <path
       d="M84.2152032,128.402615 L84.2202032,122.307615 L78.1122032,122.303615 L78.1162032,116.208615 L65.9002032,116.200615 L65.8972032,122.296615 L59.7632032,122.293615 L59.7592032,128.387615 L53.7402032,128.384615 L53.7362032,134.480615 L90.2302032,134.501615 L90.2352032,128.405615 L84.2152032,128.402615 Z"
       id="path1706"
       stroke="#000000"
       sketch:type="MSShapeGroup" />
    <rect
       id="Rectangle"
       stroke="#000000"
       sketch:type="MSShapeGroup"
       x="65.9422032"
       y="140.593615"
       width="12.113"
       height="6.095" />
    <rect
       id="rect1709"
       stroke="#000000"
       sketch:type="MSShapeGroup"
       x="65.9422032"
       y="134.593615"
       width="12.114"
       height="6.096" />
    <path
       d="M65.8812032,146.676615 L65.8782032,152.771615 L65.8732032,158.866615 L65.8702032,164.957615 L77.9832032,164.965615 L77.9872032,158.873615 L77.9912032,152.778615 L77.9952032,146.684615 L65.8812032,146.676615 Z"
       id="path1711"
       stroke="#000000"
       sketch:type="MSShapeGroup" />
    <rect
       id="rect1713"
       stroke="#000000"
       sketch:type="MSShapeGroup"
       x="74.9422032"
       y="128.593615"
       width="6.108"
       height="6.094" />
    <rect
       id="rect1715"
       stroke="#000000"
       sketch:type="MSShapeGroup"
       x="65.9422032"
       y="122.593615"
       width="6.108"
       height="6.095" />
  </g>
  <path
     style="fill:#f4f4f4;fill-opacity:1;stroke-width:7.64598;stroke-linecap:square;stroke-miterlimit:0;paint-order:markers fill stroke"
     id="path2313"
     sodipodi:type="arc"
     sodipodi:cx="74.662506"
     sodipodi:cy="143.66875"
     sodipodi:rx="33.183334"
     sodipodi:ry="28.658333"
     sodipodi:start="1.5682499"
     sodipodi:end="1.4099084"
     sodipodi:open="true"
     sodipodi:arc-type="arc"
     d="M 74.747005,172.32699 A 33.183334,28.658333 0 0 1 41.508619,144.87582 33.183334,28.658333 0 0 1 71.953875,115.10605 33.183334,28.658333 0 0 1 107.602,140.20094 33.183334,28.658333 0 0 1 79.978301,171.95697" />
  <path
     sodipodi:type="star"
     style="fill:#ffd42a;stroke-width:7.64598;stroke-linecap:square;stroke-miterlimit:0;paint-order:markers fill stroke"
     id="path2315"
     sodipodi:sides="5"
     sodipodi:cx="71.117255"
     sodipodi:cy="139.6398"
     sodipodi:r1="14.85536"
     sodipodi:r2="30.971376"
     sodipodi:arg1="0.41822434"
     sodipodi:arg2="1.0465429"
     inkscape:flatsided="false"
     inkscape:rounded="0"
     inkscape:randomized="0"
     d="m 84.692256,145.67313 1.928244,20.77853 -17.046379,-12.03686 -19.165689,8.25478 6.180115,-19.93166 -13.773292,-15.67679 20.8659,-0.28158 10.653326,-17.94357 6.715722,19.75763 20.357407,4.58705 z" />
</svg>
